<svg width="76" height="29" viewBox="0 0 76 29" fill="none" xmlns="http://www.w3.org/2000/svg">
<path fill-rule="evenodd" clip-rule="evenodd" d="M4.09224 8.08483C3.38546 8.08483 2.7741 7.93288 2.25815 7.62896C1.74221 7.31798 1.34288 6.87624 1.06017 6.30376C0.784522 5.7242 0.646701 5.04216 0.646701 4.25764C0.646701 3.48018 0.784522 2.80521 1.06017 2.23272C1.34288 1.65316 1.74221 1.21143 2.25815 0.907513C2.7741 0.596531 3.38546 0.44104 4.09224 0.44104C4.56578 0.44104 5.01105 0.518786 5.42805 0.674277C5.85211 0.8227 6.21964 1.03827 6.53062 1.32098C6.6437 1.42699 6.70025 1.55068 6.70025 1.69204C6.70025 1.79098 6.67197 1.87933 6.61543 1.95708C6.55889 2.02775 6.49175 2.06309 6.414 2.06309C6.32919 2.06309 6.22671 2.02422 6.10655 1.94648C5.7461 1.66376 5.41745 1.46587 5.1206 1.35278C4.83082 1.2397 4.4951 1.18316 4.11344 1.18316C3.29358 1.18316 2.66102 1.45173 2.21575 1.98888C1.77754 2.51896 1.55844 3.27522 1.55844 4.25764C1.55844 5.24712 1.77754 6.01044 2.21575 6.54759C2.66102 7.07768 3.29358 7.34272 4.11344 7.34272C4.48803 7.34272 4.82375 7.28618 5.1206 7.17309C5.41745 7.06001 5.7461 6.86211 6.10655 6.5794C6.22671 6.50165 6.32919 6.46278 6.414 6.46278C6.49175 6.46278 6.55889 6.49812 6.61543 6.5688C6.67197 6.63947 6.70025 6.72782 6.70025 6.83384C6.70025 6.97519 6.6437 7.09888 6.53062 7.2049C6.21964 7.48761 5.85211 7.70671 5.42805 7.8622C5.01105 8.01062 4.56578 8.08483 4.09224 8.08483ZM10.5249 2.731C10.8217 2.70979 10.9701 2.82995 10.9701 3.09145C10.9701 3.20454 10.9383 3.29642 10.8747 3.3671C10.8111 3.43071 10.7016 3.46958 10.5461 3.48372L10.228 3.51552C9.75449 3.55793 9.4011 3.72755 9.16786 4.0244C8.94169 4.31418 8.82861 4.65696 8.82861 5.05276V7.62896C8.82861 7.77032 8.78974 7.87633 8.71199 7.94701C8.63425 8.01769 8.53176 8.05303 8.40454 8.05303C8.27732 8.05303 8.17131 8.01769 8.08649 7.94701C8.00875 7.86927 7.96988 7.76325 7.96988 7.62896V3.15506C7.96988 3.02078 8.01228 2.91829 8.0971 2.84762C8.18191 2.76987 8.28439 2.731 8.40454 2.731C8.51763 2.731 8.61304 2.76987 8.69079 2.84762C8.76853 2.91829 8.80741 3.01724 8.80741 3.14446V3.73815C8.95583 3.42717 9.16433 3.1904 9.4329 3.02784C9.70855 2.86529 10.0231 2.76987 10.3765 2.7416L10.5249 2.731ZM15.6007 6.80203C15.6784 6.80203 15.7456 6.83384 15.8021 6.89745C15.8586 6.96106 15.8869 7.04234 15.8869 7.14129C15.8869 7.31798 15.7632 7.48054 15.5159 7.62896C15.2614 7.77739 14.9928 7.89047 14.7101 7.96821C14.4274 8.03889 14.1518 8.07423 13.8832 8.07423C13.0845 8.07423 12.452 7.83746 11.9855 7.36392C11.5261 6.89038 11.2964 6.23661 11.2964 5.40261C11.2964 4.87253 11.3989 4.40606 11.6038 4.0032C11.8088 3.59327 12.0951 3.27522 12.4626 3.04905C12.8372 2.82288 13.2612 2.70979 13.7348 2.70979C14.4062 2.70979 14.9398 2.9289 15.3356 3.3671C15.7314 3.8053 15.9293 4.39899 15.9293 5.14817C15.9293 5.28953 15.901 5.39201 15.8445 5.45562C15.788 5.51923 15.6961 5.55104 15.5689 5.55104H12.1551C12.2187 6.76669 12.7948 7.37452 13.8832 7.37452C14.1588 7.37452 14.3956 7.33918 14.5935 7.26851C14.7914 7.19076 15.0034 7.08828 15.2296 6.96106C15.4134 6.85504 15.5371 6.80203 15.6007 6.80203ZM13.7454 3.3777C13.293 3.3777 12.929 3.51905 12.6534 3.80176C12.3848 4.08448 12.2258 4.4838 12.1763 4.99975H15.1766C15.1625 4.47674 15.0317 4.07741 14.7843 3.80176C14.537 3.51905 14.1906 3.3777 13.7454 3.3777ZM19.3043 2.70979C20.5977 2.70979 21.2444 3.3883 21.2444 4.74531V7.62896C21.2444 7.75618 21.2055 7.85866 21.1278 7.93641C21.0571 8.01416 20.9581 8.05303 20.8309 8.05303C20.7037 8.05303 20.6012 8.01416 20.5235 7.93641C20.4457 7.85866 20.4069 7.75618 20.4069 7.62896V7.12008C20.2726 7.424 20.0676 7.66077 19.792 7.83039C19.5163 7.99295 19.1983 8.07423 18.8378 8.07423C18.5056 8.07423 18.1982 8.00709 17.9155 7.8728C17.6398 7.73851 17.4207 7.55122 17.2582 7.31091C17.0956 7.07061 17.0143 6.80557 17.0143 6.51579C17.0143 6.12706 17.1133 5.82668 17.3112 5.61465C17.5091 5.39555 17.8342 5.24006 18.2865 5.14817C18.7389 5.04923 19.3679 4.99975 20.1736 4.99975H20.4069V4.6499C20.4069 4.22583 20.3185 3.91485 20.1418 3.71695C19.9722 3.51905 19.693 3.42011 19.3043 3.42011C18.8237 3.42011 18.336 3.55086 17.8413 3.81237C17.6504 3.93252 17.5161 3.99259 17.4384 3.99259C17.3536 3.99259 17.2829 3.96079 17.2264 3.89718C17.1698 3.83357 17.1415 3.75229 17.1415 3.65334C17.1415 3.55439 17.1698 3.46958 17.2264 3.3989C17.29 3.32116 17.3889 3.24341 17.5232 3.16567C17.7706 3.02431 18.0498 2.91476 18.3607 2.83701C18.6788 2.7522 18.9933 2.70979 19.3043 2.70979ZM18.9544 7.39573C19.3785 7.39573 19.7248 7.25437 19.9934 6.97166C20.269 6.68188 20.4069 6.31082 20.4069 5.85849V5.55104H20.216C19.5941 5.55104 19.1205 5.57931 18.7954 5.63585C18.4703 5.68533 18.2371 5.77367 18.0957 5.90089C17.9614 6.02104 17.8943 6.20127 17.8943 6.44158C17.8943 6.71722 17.9932 6.94692 18.1911 7.13068C18.3961 7.30738 18.6505 7.39573 18.9544 7.39573ZM25.2017 7.37452C25.4491 7.39573 25.5728 7.50881 25.5728 7.71378C25.5728 7.83393 25.5268 7.92581 25.4349 7.98942C25.3501 8.04596 25.2194 8.06716 25.0427 8.05303L24.7564 8.03183C24.191 7.98942 23.774 7.81979 23.5054 7.52295C23.2369 7.2261 23.1026 6.7773 23.1026 6.17654V3.51552H22.3923C22.2721 3.51552 22.1767 3.48725 22.106 3.43071C22.0424 3.3671 22.0106 3.28582 22.0106 3.18687C22.0106 3.08085 22.0424 2.99604 22.106 2.93243C22.1767 2.86882 22.2721 2.83701 22.3923 2.83701H23.1026V1.63903C23.1026 1.50474 23.1415 1.40226 23.2192 1.33158C23.2969 1.25383 23.403 1.21496 23.5372 1.21496C23.6645 1.21496 23.7669 1.25383 23.8447 1.33158C23.9224 1.40226 23.9613 1.50474 23.9613 1.63903V2.83701H25.1381C25.2512 2.83701 25.3395 2.86882 25.4031 2.93243C25.4738 2.99604 25.5092 3.08085 25.5092 3.18687C25.5092 3.28582 25.4738 3.3671 25.4031 3.43071C25.3395 3.48725 25.2512 3.51552 25.1381 3.51552H23.9613V6.21894C23.9613 6.60767 24.0391 6.89038 24.1945 7.06707C24.3571 7.2367 24.5974 7.33212 24.9155 7.35332L25.2017 7.37452ZM30.4161 6.80203C30.4938 6.80203 30.561 6.83384 30.6175 6.89745C30.674 6.96106 30.7023 7.04234 30.7023 7.14129C30.7023 7.31798 30.5786 7.48054 30.3312 7.62896C30.0768 7.77739 29.8082 7.89047 29.5255 7.96821C29.2428 8.03889 28.9672 8.07423 28.6986 8.07423C27.8999 8.07423 27.2674 7.83746 26.8009 7.36392C26.3415 6.89038 26.1118 6.23661 26.1118 5.40261C26.1118 4.87253 26.2143 4.40606 26.4192 4.0032C26.6242 3.59327 26.9104 3.27522 27.278 3.04905C27.6526 2.82288 28.0766 2.70979 28.5502 2.70979C29.2216 2.70979 29.7552 2.9289 30.151 3.3671C30.5468 3.8053 30.7447 4.39899 30.7447 5.14817C30.7447 5.28953 30.7164 5.39201 30.6599 5.45562C30.6034 5.51923 30.5115 5.55104 30.3843 5.55104H26.9705C27.0341 6.76669 27.6102 7.37452 28.6986 7.37452C28.9742 7.37452 29.211 7.33918 29.4089 7.26851C29.6068 7.19076 29.8188 7.08828 30.045 6.96106C30.2288 6.85504 30.3525 6.80203 30.4161 6.80203ZM28.5608 3.3777C28.1084 3.3777 27.7444 3.51905 27.4688 3.80176C27.2002 4.08448 27.0412 4.4838 26.9917 4.99975H29.992C29.9779 4.47674 29.8471 4.07741 29.5997 3.80176C29.3524 3.51905 29.006 3.3777 28.5608 3.3777ZM36.1552 0.472845C36.2895 0.472845 36.3955 0.511718 36.4733 0.589463C36.551 0.667209 36.5899 0.766158 36.5899 0.88631V7.62896C36.5899 7.75618 36.551 7.85866 36.4733 7.93641C36.3955 8.01416 36.2895 8.05303 36.1552 8.05303C36.0209 8.05303 35.9149 8.01416 35.8372 7.93641C35.7665 7.85866 35.7311 7.75618 35.7311 7.62896V7.05647C35.5756 7.38159 35.3459 7.6325 35.042 7.80919C34.7452 7.98588 34.3953 8.07423 33.9925 8.07423C33.5401 8.07423 33.1408 7.96115 32.7945 7.73498C32.4482 7.50881 32.1796 7.19429 31.9888 6.79143C31.7979 6.3815 31.7025 5.90796 31.7025 5.37081C31.7025 4.84073 31.7979 4.37425 31.9888 3.97139C32.1796 3.56853 32.4482 3.25755 32.7945 3.03845C33.1408 2.81934 33.5401 2.70979 33.9925 2.70979C34.3953 2.70979 34.7452 2.79814 35.042 2.97484C35.3459 3.15153 35.5756 3.40244 35.7311 3.72755V0.88631C35.7311 0.75909 35.7665 0.660141 35.8372 0.589463C35.9149 0.511718 36.0209 0.472845 36.1552 0.472845ZM34.1621 7.36392C34.6639 7.36392 35.0491 7.19429 35.3177 6.85504C35.5933 6.50872 35.7311 6.02104 35.7311 5.39201C35.7311 4.76298 35.5933 4.27884 35.3177 3.93959C35.0491 3.60033 34.6639 3.43071 34.1621 3.43071C33.6603 3.43071 33.268 3.60033 32.9853 3.93959C32.7097 4.27884 32.5718 4.75591 32.5718 5.37081C32.5718 5.99984 32.7097 6.49105 32.9853 6.84444C33.268 7.19076 33.6603 7.36392 34.1621 7.36392ZM43.5111 2.70979C43.9634 2.70979 44.3628 2.81934 44.7091 3.03845C45.0554 3.25755 45.324 3.56853 45.5148 3.97139C45.7056 4.37425 45.8011 4.84073 45.8011 5.37081C45.8011 5.90796 45.7056 6.3815 45.5148 6.79143C45.324 7.19429 45.0554 7.50881 44.7091 7.73498C44.3628 7.96115 43.9634 8.07423 43.5111 8.07423C43.1082 8.07423 42.7548 7.98588 42.4509 7.80919C42.1541 7.6325 41.9279 7.38159 41.7724 7.05647V7.62896C41.7724 7.75618 41.7336 7.85866 41.6558 7.93641C41.5851 8.01416 41.4826 8.05303 41.3484 8.05303C41.2141 8.05303 41.1081 8.01416 41.0303 7.93641C40.9526 7.85866 40.9137 7.75618 40.9137 7.62896V0.88631C40.9137 0.766158 40.9526 0.667209 41.0303 0.589463C41.1081 0.511718 41.2141 0.472845 41.3484 0.472845C41.4826 0.472845 41.5851 0.511718 41.6558 0.589463C41.7336 0.660141 41.7724 0.75909 41.7724 0.88631V3.72755C41.9279 3.40244 42.1541 3.15153 42.4509 2.97484C42.7548 2.79814 43.1082 2.70979 43.5111 2.70979ZM43.3415 7.36392C43.8433 7.36392 44.232 7.19076 44.5076 6.84444C44.7833 6.49105 44.9211 5.99984 44.9211 5.37081C44.9211 4.75591 44.7833 4.27884 44.5076 3.93959C44.232 3.60033 43.8433 3.43071 43.3415 3.43071C42.8397 3.43071 42.4509 3.60033 42.1753 3.93959C41.9067 4.27884 41.7724 4.76298 41.7724 5.39201C41.7724 6.02104 41.9067 6.50872 42.1753 6.85504C42.4509 7.19429 42.8397 7.36392 43.3415 7.36392ZM50.7432 2.99604C50.821 2.82641 50.9447 2.7416 51.1143 2.7416C51.2203 2.7416 51.3157 2.77694 51.4005 2.84762C51.4854 2.91829 51.5278 3.00664 51.5278 3.11266C51.5278 3.17627 51.5136 3.23281 51.4854 3.28228L48.5063 9.70689C48.471 9.78463 48.4179 9.84471 48.3473 9.88711C48.2837 9.92952 48.2165 9.95072 48.1458 9.95072C48.0398 9.95072 47.9444 9.91539 47.8596 9.84471C47.7818 9.7811 47.743 9.69628 47.743 9.59027C47.743 9.53373 47.7571 9.47718 47.7854 9.42064L48.5275 7.81979L46.4284 3.28228C46.4001 3.23281 46.386 3.1798 46.386 3.12326C46.386 3.01724 46.4319 2.92536 46.5238 2.84762C46.6227 2.76987 46.7288 2.731 46.8418 2.731C46.9125 2.731 46.9797 2.7522 47.0433 2.79461C47.1139 2.83701 47.167 2.89709 47.2023 2.97484L48.9728 6.95046L50.7432 2.99604ZM43.7023 28.9565H46.4266V27.0582C47.1695 28.3085 48.3769 28.9283 50.0486 28.9283C51.7202 28.9283 53.0617 28.352 54.0627 27.167C55.0636 25.9819 55.5693 24.4815 55.5693 22.6441C55.5693 20.8394 55.0946 19.3607 54.1349 18.1974C53.1752 17.0341 51.8441 16.4579 50.1414 16.4579C49.3574 16.4414 48.5804 16.6163 47.8712 16.9689C47.2108 17.3059 46.7361 17.7299 46.4472 18.23V11H43.7023V28.9565ZM52.7418 22.6615C52.7418 23.814 52.4529 24.7272 51.8647 25.4013C51.2765 26.0754 50.5232 26.4124 49.5842 26.4124C48.6658 26.4124 47.9022 26.0754 47.314 25.3905C46.7258 24.7055 46.4266 23.814 46.4266 22.6615C46.4266 21.5091 46.7155 20.6067 47.314 19.9435C47.9125 19.2803 48.6658 18.9541 49.5842 18.9541C50.5336 18.9541 51.2972 19.2803 51.875 19.9435C52.4529 20.6067 52.7418 21.5091 52.7418 22.6615ZM30.5765 19.3455V16.4861C30.3425 16.4334 30.1037 16.4079 29.8644 16.41C29.1659 16.3963 28.4772 16.5843 27.8729 16.9536C27.3062 17.2901 26.8603 17.8135 26.6036 18.4431V16.4426H23.9929V28.913H26.6758V22.6289C26.6758 20.3131 27.6768 19.2694 29.6993 19.2694C29.993 19.2731 30.2861 19.2986 30.5765 19.3455ZM4.58027 19.258C4.95883 19.0876 5.36706 19.0026 5.77868 19.0085C6.56396 19.0085 7.17279 19.2259 7.6258 19.6608C8.06037 20.0802 8.36888 20.6244 8.51324 21.2264L10.9176 20.3023C10.6403 19.2133 10.0357 18.2483 9.1943 17.5516C8.30686 16.7906 7.16144 16.41 5.75805 16.41C4.11731 16.41 2.75519 17.008 1.65105 18.1931C0.546911 19.3781 0 20.8785 0 22.6941C0 24.4881 0.55723 25.9884 1.67169 27.1952C2.78615 28.4021 4.16891 29 5.81996 29C7.1924 29 8.31718 28.6195 9.20462 27.8584C10.0921 27.0974 10.6906 26.1841 11.0001 25.1295L8.64739 24.2271C8.47485 24.8167 8.14965 25.3438 7.70835 25.7492C7.23367 26.195 6.60421 26.4233 5.81996 26.4233C5.40278 26.4295 4.98898 26.3437 4.60513 26.1715C4.22128 25.9992 3.87586 25.7443 3.59104 25.4231C2.98221 24.7599 2.68296 23.8357 2.68296 22.6941C2.68296 21.5526 2.98221 20.6502 3.58072 19.9978C3.86122 19.6804 4.20171 19.4284 4.58027 19.258ZM56.1884 28.9565H58.8507V16.4426H56.1884V28.9565ZM15.4177 25.3905C15.7144 25.7067 16.0675 25.958 16.4568 26.1299C16.846 26.3017 17.2637 26.3907 17.6858 26.3917C18.1078 26.3928 18.5259 26.3058 18.9159 26.1358C19.3059 25.9658 19.6601 25.7162 19.9581 25.4013C20.5773 24.7381 20.8868 23.8249 20.8868 22.6398C20.8868 21.4765 20.5773 20.5741 19.9581 19.9217C19.3524 19.2947 18.5371 18.9433 17.6879 18.9433C16.8387 18.9433 16.0235 19.2947 15.4177 19.9217C14.7986 20.5741 14.489 21.4765 14.489 22.6398C14.489 23.8031 14.7986 24.7272 15.4177 25.3905ZM17.6879 16.41C19.4112 16.41 20.8353 16.9971 21.9497 18.1713C23.0642 19.3455 23.6317 20.835 23.6317 22.6507C23.6317 24.4663 23.0745 25.9558 21.9497 27.1409C20.8249 28.3259 19.4112 28.913 17.6879 28.913C15.9853 28.913 14.5716 28.3259 13.4468 27.1409C12.322 25.9558 11.7648 24.4554 11.7648 22.6507C11.7648 20.8459 12.322 19.3564 13.4468 18.1713C14.5716 16.9862 15.975 16.41 17.6879 16.41ZM34.2397 21.3677H40.2145C40.205 21.0159 40.1278 20.6697 39.9877 20.3501C39.8476 20.0306 39.6474 19.7443 39.3993 19.5086C38.8936 19.0085 38.161 18.7584 37.2116 18.7584C36.3448 18.7584 35.6431 19.0194 35.1169 19.5412C34.5906 20.0631 34.2913 20.6763 34.2397 21.3677ZM40.5344 24.4337L42.98 25.1839C42.6291 26.2602 41.979 27.1517 41.0194 27.8584C40.0597 28.5651 38.8833 28.913 37.4799 28.913C35.7463 28.913 34.281 28.3368 33.0737 27.1952C31.8663 26.0537 31.2575 24.5207 31.2575 22.5963C31.2575 20.7915 31.8457 19.302 33.0221 18.1496C34.1373 17.0162 35.6313 16.3912 37.1807 16.41C39.0484 16.41 40.5034 16.9645 41.556 18.0626C42.6085 19.1607 43.1337 20.6502 43.1337 22.5245C43.1337 23.0247 43.1131 23.3182 43.0615 23.4161H34.1665C34.1776 23.8367 34.2735 24.2501 34.4479 24.6288C34.6222 25.0074 34.871 25.3426 35.1777 25.6122C35.8204 26.1919 36.6434 26.5016 37.4892 26.482C39.0484 26.4885 40.07 25.8036 40.5344 24.4337ZM71.44 28.9457H59.6969V26.4885L67.1163 18.9215H59.5731V16.4426H71.4194V18.828L63.9071 26.4603H71.44V28.9457ZM72.3368 27.7846C72.4314 28.0253 72.572 28.2433 72.7502 28.4251C72.9242 28.6113 73.1328 28.7583 73.3632 28.8571C73.5936 28.9559 73.8409 29.0044 74.0899 28.9997C74.3403 29.0035 74.5888 28.9546 74.8207 28.8559C75.0526 28.7572 75.2631 28.6107 75.4396 28.4251C75.6217 28.2459 75.7657 28.0287 75.8621 27.7875C75.9586 27.5463 76.0054 27.2866 75.9995 27.0253C75.999 26.4963 75.7976 25.9891 75.4396 25.615C75.0816 25.2409 74.5962 25.0305 74.0899 25.03C73.8398 25.0238 73.5913 25.0727 73.3605 25.1735C73.1296 25.2743 72.9217 25.4247 72.7502 25.615C72.5719 25.7988 72.4311 26.0187 72.3366 26.2611C72.2421 26.5035 72.1957 26.7635 72.2003 27.0253C72.1958 27.2855 72.2422 27.5438 72.3368 27.7846Z" fill="#BFBFBF"/>
</svg>
