<?xml version="1.0" encoding="utf-8"?>
<svg viewBox="0 0 68 11" fill="none" xmlns="http://www.w3.org/2000/svg">
  <path fill-rule="evenodd" clip-rule="evenodd" d="M25.3896 4.4595L21.295 4.13318L19.6948 0.648972L18.0945 4.13845L14 4.4595L17.1093 6.94897L16.1754 10.649L19.6948 8.68581L23.2142 10.649L22.2859 6.94897L25.3896 4.4595ZM19.6948 7.7016L17.5535 8.89634L18.123 6.64371L16.2324 5.12792L18.7267 4.92792L19.6948 2.80687L20.6686 4.93318L23.1629 5.13318L21.2722 6.64897L21.8417 8.9016L19.6948 7.7016Z" fill="#F8475F"/>
  <path fill-rule="evenodd" clip-rule="evenodd" d="M39.3896 4.4595L35.295 4.13318L33.6948 0.648972L32.0945 4.13845L28 4.4595L31.1093 6.94897L30.1754 10.649L33.6948 8.68581L37.2142 10.649L36.2859 6.94897L39.3896 4.4595ZM33.6948 7.70161L31.5535 8.89634L32.123 6.64371L30.2323 5.12792L32.7267 4.92792L33.6948 2.80687L34.6686 4.93319L37.1629 5.13319L35.2722 6.64897L35.8417 8.90161L33.6948 7.70161Z" fill="#F8475F"/>
  <path fill-rule="evenodd" clip-rule="evenodd" d="M53.3896 4.4595L49.295 4.13318L47.6948 0.648972L46.0945 4.13845L42 4.4595L45.1093 6.94897L44.1754 10.649L47.6948 8.68581L51.2142 10.649L50.2859 6.94897L53.3896 4.4595ZM47.6948 7.70161L45.5535 8.89634L46.123 6.64371L44.2323 5.12792L46.7267 4.92792L47.6948 2.80687L48.6686 4.93319L51.1629 5.13319L49.2722 6.64897L49.8417 8.90161L47.6948 7.70161Z" fill="#F8475F"/>
  <path fill-rule="evenodd" clip-rule="evenodd" d="M67.3896 4.4595L63.295 4.13318L61.6948 0.648972L60.0945 4.13845L56 4.4595L59.1093 6.94897L58.1754 10.649L61.6948 8.68581L65.2142 10.649L64.2859 6.94897L67.3896 4.4595ZM61.6948 7.70161L59.5535 8.89634L60.123 6.64371L58.2323 5.12792L60.7267 4.92792L61.6948 2.80687L62.6686 4.93319L65.1629 5.13319L63.2722 6.64897L63.8417 8.90161L61.6948 7.70161Z" fill="#F8475F"/>
  <path fill-rule="evenodd" clip-rule="evenodd" d="M 5.583 8.574 L 9.103 10.537 L 8.169 6.837 L 11.278 4.348 L 7.183 4.027 L 5.583 0.537 L 3.983 4.027 L -0.112 4.348 L 2.998 6.837 L 2.064 10.537 L 5.583 8.574 Z" fill="#F8475F"/>
  <path fill-rule="evenodd" clip-rule="evenodd" d="M 11.245 4.375 L 7.151 4.049 L 5.55 0.564 L 3.95 4.054 L -0.144 4.375 L 2.965 6.864 L 2.031 10.564 L 5.55 8.601 L 9.07 10.564 L 8.142 6.864 L 11.245 4.375 Z M 5.55 7.617 L 3.409 8.812 L 3.979 6.559 L 2.088 5.043 L 4.582 4.843 L 5.55 2.722 L 6.524 4.849 L 9.019 5.049 L 7.128 6.564 L 7.697 8.817 L 5.55 7.617 Z" fill="#F8475F"/>
  <path fill-rule="evenodd" clip-rule="evenodd" d="M 19.692 8.657 L 23.212 10.62 L 22.278 6.92 L 25.387 4.431 L 21.292 4.11 L 19.692 0.62 L 18.092 4.11 L 13.997 4.431 L 17.107 6.92 L 16.173 10.62 L 19.692 8.657 Z" fill="#F8475F"/>
</svg>