<svg width="58" height="35" viewBox="0 0 58 35" fill="none" xmlns="http://www.w3.org/2000/svg">
<path d="M37.7959 23.2887H35.9252V29.6829C35.9252 29.8026 35.8222 29.9052 35.7021 29.9052H34.2605C34.1403 29.9052 34.0374 29.8026 34.0374 29.6829V23.2887H32.1495C32.098 23.2887 32.0294 23.2716 31.9951 23.2374C31.9607 23.2032 31.9264 23.1519 31.9264 23.0836V21.9552C31.9264 21.9039 31.9436 21.8355 31.9951 21.8013C32.0294 21.7671 32.098 21.7329 32.1495 21.75H37.7959C37.916 21.75 38.019 21.8355 38.019 21.9552V23.0836C38.019 23.2032 37.916 23.2887 37.7959 23.2887Z" fill="white"/>
<path d="M43.8027 29.8539C43.0647 29.9565 42.3096 30.0077 41.5716 29.9906C40.1471 29.9906 38.8943 29.6316 38.8943 27.6313V23.9897C38.8943 21.9894 40.1643 21.6474 41.5888 21.6474C42.3267 21.6303 43.0647 21.6816 43.8027 21.7842C43.9571 21.8013 44.0258 21.8697 44.0258 22.0065V23.0323C44.0258 23.152 43.9228 23.2545 43.8027 23.2545H41.4858C40.9709 23.2545 40.7821 23.4255 40.7821 24.0068V24.9984H43.7169C43.837 24.9984 43.94 25.101 43.94 25.2207V26.2636C43.94 26.3832 43.837 26.4858 43.7169 26.4858H40.7821V27.6484C40.7821 28.2126 40.9709 28.4007 41.4858 28.4007H43.8027C43.9228 28.4007 44.0258 28.5032 44.0258 28.6229V29.6487C44.0258 29.7684 43.9571 29.8368 43.8027 29.8539Z" fill="white"/>
<path d="M52.1092 29.9052H50.3587C50.2385 29.9223 50.1184 29.8539 50.0669 29.7342L48.5395 27.3407L47.1665 29.6829C47.0979 29.8197 47.012 29.9052 46.8919 29.9052H45.2615C45.2272 29.9052 45.1757 29.9052 45.1414 29.871C45.107 29.8368 45.0899 29.8026 45.0899 29.7513C45.0899 29.7171 45.107 29.7 45.107 29.6829L47.4926 25.7165L45.0727 21.9552C45.0555 21.9381 45.0555 21.9039 45.0555 21.8868C45.0555 21.8013 45.1414 21.7329 45.2272 21.75H47.0292C47.1493 21.75 47.2351 21.8526 47.3038 21.9552L48.7111 24.1778L50.0841 21.9552C50.1356 21.8355 50.2385 21.7671 50.3587 21.75H51.9891C52.0749 21.75 52.1607 21.8013 52.1607 21.8868C52.1607 21.9039 52.1436 21.9381 52.1436 21.9552L49.7408 25.7507L52.2465 29.6829C52.2637 29.7171 52.2809 29.7513 52.2809 29.7855C52.2637 29.8539 52.2122 29.9052 52.1092 29.9052Z" fill="white"/>
<path d="M29.2834 21.7671C29.1976 21.7671 29.1289 21.8184 29.1118 21.9039L27.5157 27.8023C27.4985 27.922 27.4642 27.9732 27.3612 27.9732C27.2583 27.9732 27.2239 27.922 27.2068 27.8023L25.6107 21.9039C25.5935 21.8184 25.5249 21.7671 25.4391 21.7671H23.8601C23.8086 21.7671 23.7572 21.7842 23.7228 21.8355C23.6885 21.8697 23.6713 21.921 23.6885 21.9723C23.6885 21.9723 25.645 28.7426 25.6622 28.811C25.9196 29.6145 26.5546 30.0078 27.3612 30.0078C28.1335 30.0419 28.8372 29.5461 29.0603 28.811C29.0946 28.7255 30.9996 21.9723 30.9996 21.9723C31.0168 21.921 30.9996 21.8697 30.9653 21.8355C30.931 21.8013 30.8795 21.7671 30.828 21.7671H29.2834Z" fill="white"/>
<path d="M20.359 16.2791H3.93474C3.33406 16.2791 2.78487 16.6039 2.49311 17.0997C2.18419 17.6126 2.16703 18.2452 2.44163 18.7581L4.0892 21.8697H1.10297C0.725399 21.8697 0.364991 22.0578 0.159044 22.3826C-0.0469032 22.7074 -0.0469034 23.1177 0.124719 23.4597L5.4107 33.41C5.59948 33.769 5.97705 33.9913 6.37179 33.9913C6.76652 33.9913 7.14409 33.769 7.33287 33.41L8.7745 30.7087L10.5765 34.111C10.8683 34.658 11.4518 35 12.0697 35C12.6875 35 13.271 34.658 13.5628 34.111L21.8007 18.6726C22.0753 18.1597 22.0581 17.5442 21.7492 17.0655C21.4746 16.5697 20.9426 16.2791 20.359 16.2791ZM13.0136 22.7929L9.40951 29.529C9.28937 29.7684 9.0491 29.9052 8.7745 29.9052C8.49991 29.9052 8.25963 29.7513 8.1395 29.529L4.58691 22.8613C4.48394 22.6561 4.48393 22.4168 4.60407 22.2116C4.72421 22.0065 4.94732 21.8868 5.17043 21.8868H12.4472C12.6703 21.8868 12.8763 21.9894 12.9793 22.1774C13.1166 22.3655 13.1166 22.6048 13.0136 22.7929Z" fill="white"/>
<path d="M1.35701 11.053C1.22272 11.053 1.11671 11.0141 1.03896 10.9364C0.961217 10.8516 0.922344 10.742 0.922344 10.6077V3.9499C0.922344 3.82268 0.961217 3.7202 1.03896 3.64245C1.12378 3.56471 1.23333 3.52583 1.36761 3.52583H3.88021C4.66473 3.52583 5.27256 3.71666 5.70369 4.09832C6.14189 4.47998 6.36099 5.02067 6.36099 5.72038C6.36099 6.42009 6.14189 6.9643 5.70369 7.35303C5.26549 7.74176 4.65766 7.93612 3.88021 7.93612H1.79168V10.6077C1.79168 10.742 1.75281 10.8516 1.67506 10.9364C1.59732 11.0141 1.4913 11.053 1.35701 11.053ZM3.79539 7.21521C4.9333 7.21521 5.50226 6.71693 5.50226 5.72038C5.50226 4.73796 4.9333 4.24675 3.79539 4.24675H1.79168V7.21521H3.79539ZM9.6041 11.0742C9.11643 11.0742 8.68529 10.9647 8.3107 10.7456C7.94318 10.5265 7.65693 10.2155 7.45197 9.81261C7.25407 9.40268 7.15512 8.92914 7.15512 8.39199C7.15512 7.85484 7.25407 7.38484 7.45197 6.98197C7.65693 6.57204 7.94318 6.25753 8.3107 6.03843C8.68529 5.81932 9.11643 5.70977 9.6041 5.70977C10.0918 5.70977 10.5229 5.81932 10.8975 6.03843C11.2721 6.25753 11.5583 6.57204 11.7562 6.98197C11.9612 7.38484 12.0637 7.85484 12.0637 8.39199C12.0637 8.92914 11.9612 9.40268 11.7562 9.81261C11.5583 10.2155 11.2721 10.5265 10.8975 10.7456C10.5229 10.9647 10.0918 11.0742 9.6041 11.0742ZM9.6041 10.3639C10.113 10.3639 10.5017 10.1978 10.7703 9.86562C11.0459 9.52637 11.1838 9.03516 11.1838 8.39199C11.1838 7.76296 11.0459 7.27882 10.7703 6.93957C10.4946 6.59325 10.1059 6.42009 9.6041 6.42009C9.10229 6.42009 8.71357 6.59325 8.43792 6.93957C8.16228 7.27882 8.02446 7.76296 8.02446 8.39199C8.02446 9.02809 8.15875 9.51577 8.42732 9.85502C8.70296 10.1943 9.09523 10.3639 9.6041 10.3639ZM20.3418 6.00662C20.4124 5.83699 20.5291 5.75218 20.6916 5.75218C20.7976 5.75218 20.893 5.78752 20.9779 5.8582C21.0627 5.92888 21.1051 6.01722 21.1051 6.12324C21.1051 6.17271 21.0945 6.22572 21.0733 6.28226L19.3134 10.735C19.271 10.8268 19.2074 10.9011 19.1226 10.9576C19.0448 11.0071 18.9565 11.0318 18.8575 11.0318C18.7656 11.0318 18.6773 11.0071 18.5925 10.9576C18.5147 10.9011 18.4547 10.8268 18.4123 10.735L16.9492 7.01378L15.4968 10.735C15.4615 10.8268 15.4014 10.9011 15.3166 10.9576C15.2318 11.0071 15.1399 11.0318 15.0409 11.0318C14.9491 11.0318 14.8607 11.0071 14.7759 10.9576C14.6911 10.9011 14.6275 10.8268 14.5851 10.735L12.8252 6.29287C12.804 6.23632 12.7934 6.18685 12.7934 6.14444C12.7934 6.03136 12.8393 5.93594 12.9312 5.8582C13.0302 5.78045 13.1362 5.74158 13.2493 5.74158C13.4189 5.74158 13.539 5.82639 13.6097 5.99602L15.0621 9.90803L16.557 6.02782C16.5994 5.93594 16.6559 5.86527 16.7266 5.81579C16.8043 5.76632 16.8856 5.74158 16.9704 5.74158C17.0623 5.74158 17.1436 5.76632 17.2143 5.81579C17.292 5.86527 17.3486 5.93594 17.3839 6.02782L18.8787 9.89743L20.3418 6.00662ZM26.1402 9.80201C26.2179 9.80201 26.2851 9.83382 26.3416 9.89743C26.3982 9.96104 26.4264 10.0423 26.4264 10.1413C26.4264 10.318 26.3028 10.4805 26.0554 10.6289C25.8009 10.7774 25.5324 10.8904 25.2497 10.9682C24.9669 11.0389 24.6913 11.0742 24.4227 11.0742C23.6241 11.0742 22.9915 10.8374 22.525 10.3639C22.0656 9.89036 21.8359 9.23659 21.8359 8.40259C21.8359 7.87251 21.9384 7.40604 22.1434 7.00318C22.3483 6.59325 22.6346 6.2752 23.0021 6.04903C23.3767 5.82286 23.8008 5.70977 24.2743 5.70977C24.9457 5.70977 25.4794 5.92888 25.8752 6.36708C26.271 6.80528 26.4689 7.39897 26.4689 8.14815C26.4689 8.28951 26.4406 8.39199 26.384 8.4556C26.3275 8.51921 26.2356 8.55102 26.1084 8.55102H22.6947C22.7583 9.76667 23.3343 10.3745 24.4227 10.3745C24.6984 10.3745 24.9351 10.3392 25.133 10.2685C25.3309 10.1907 25.543 10.0883 25.7691 9.96104C25.9529 9.85502 26.0766 9.80201 26.1402 9.80201ZM24.2849 6.37768C23.8326 6.37768 23.4686 6.51903 23.1929 6.80174C22.9244 7.08446 22.7653 7.48378 22.7159 7.99973H25.7161C25.702 7.47672 25.5712 7.07739 25.3239 6.80174C25.0765 6.51903 24.7302 6.37768 24.2849 6.37768ZM30.2891 5.73098C30.5859 5.70977 30.7344 5.82993 30.7344 6.09143C30.7344 6.20452 30.7026 6.2964 30.6389 6.36708C30.5753 6.43069 30.4658 6.46956 30.3103 6.4837L29.9922 6.5155C29.5187 6.55791 29.1653 6.72753 28.9321 7.02438C28.7059 7.31416 28.5928 7.65694 28.5928 8.05274V10.6289C28.5928 10.7703 28.554 10.8763 28.4762 10.947C28.3985 11.0177 28.296 11.053 28.1688 11.053C28.0415 11.053 27.9355 11.0177 27.8507 10.947C27.773 10.8692 27.7341 10.7632 27.7341 10.6289V6.15504C27.7341 6.02076 27.7765 5.91827 27.8613 5.8476C27.9461 5.76985 28.0486 5.73098 28.1688 5.73098C28.2818 5.73098 28.3773 5.76985 28.455 5.8476C28.5328 5.91827 28.5716 6.01722 28.5716 6.14444V6.73813C28.72 6.42715 28.9285 6.19038 29.1971 6.02782C29.4728 5.86527 29.7873 5.76985 30.1407 5.74158L30.2891 5.73098ZM35.3649 9.80201C35.4426 9.80201 35.5098 9.83382 35.5663 9.89743C35.6229 9.96104 35.6511 10.0423 35.6511 10.1413C35.6511 10.318 35.5274 10.4805 35.2801 10.6289C35.0256 10.7774 34.7571 10.8904 34.4743 10.9682C34.1916 11.0389 33.916 11.0742 33.6474 11.0742C32.8488 11.0742 32.2162 10.8374 31.7497 10.3639C31.2903 9.89036 31.0606 9.23659 31.0606 8.40259C31.0606 7.87251 31.1631 7.40604 31.3681 7.00318C31.573 6.59325 31.8593 6.2752 32.2268 6.04903C32.6014 5.82286 33.0254 5.70977 33.499 5.70977C34.1704 5.70977 34.704 5.92888 35.0998 6.36708C35.4956 6.80528 35.6935 7.39897 35.6935 8.14815C35.6935 8.28951 35.6653 8.39199 35.6087 8.4556C35.5522 8.51921 35.4603 8.55102 35.3331 8.55102H31.9193C31.983 9.76667 32.559 10.3745 33.6474 10.3745C33.9231 10.3745 34.1598 10.3392 34.3577 10.2685C34.5556 10.1907 34.7677 10.0883 34.9938 9.96104C35.1776 9.85502 35.3013 9.80201 35.3649 9.80201ZM33.5096 6.37768C33.0573 6.37768 32.6933 6.51903 32.4176 6.80174C32.149 7.08446 31.99 7.48378 31.9405 7.99973H34.9408C34.9267 7.47672 34.7959 7.07739 34.5486 6.80174C34.3012 6.51903 33.9549 6.37768 33.5096 6.37768ZM41.104 3.47283C41.2383 3.47283 41.3443 3.5117 41.4221 3.58944C41.4998 3.66719 41.5387 3.76614 41.5387 3.88629V10.6289C41.5387 10.7562 41.4998 10.8586 41.4221 10.9364C41.3443 11.0141 41.2383 11.053 41.104 11.053C40.9697 11.053 40.8637 11.0141 40.786 10.9364C40.7153 10.8586 40.68 10.7562 40.68 10.6289V10.0565C40.5245 10.3816 40.2948 10.6325 39.9908 10.8092C39.694 10.9859 39.3441 11.0742 38.9413 11.0742C38.4889 11.0742 38.0896 10.9611 37.7433 10.735C37.397 10.5088 37.1284 10.1943 36.9376 9.79141C36.7467 9.38148 36.6513 8.90794 36.6513 8.37079C36.6513 7.84071 36.7467 7.37423 36.9376 6.97137C37.1284 6.56851 37.397 6.25753 37.7433 6.03843C38.0896 5.81932 38.4889 5.70977 38.9413 5.70977C39.3441 5.70977 39.694 5.79812 39.9908 5.97482C40.2948 6.15151 40.5245 6.40242 40.68 6.72753V3.88629C40.68 3.75907 40.7153 3.66012 40.786 3.58944C40.8637 3.5117 40.9697 3.47283 41.104 3.47283ZM39.1109 10.3639C39.6127 10.3639 39.9979 10.1943 40.2665 9.85502C40.5421 9.5087 40.68 9.02102 40.68 8.39199C40.68 7.76296 40.5421 7.27882 40.2665 6.93957C39.9979 6.60031 39.6127 6.43069 39.1109 6.43069C38.6091 6.43069 38.2168 6.60031 37.9341 6.93957C37.6585 7.27882 37.5207 7.75589 37.5207 8.37079C37.5207 8.99982 37.6585 9.49103 37.9341 9.84442C38.2168 10.1907 38.6091 10.3639 39.1109 10.3639ZM48.4599 5.70977C48.9122 5.70977 49.3116 5.81932 49.6579 6.03843C50.0042 6.25753 50.2728 6.56851 50.4636 6.97137C50.6545 7.37423 50.7499 7.84071 50.7499 8.37079C50.7499 8.90794 50.6545 9.38148 50.4636 9.79141C50.2728 10.1943 50.0042 10.5088 49.6579 10.735C49.3116 10.9611 48.9122 11.0742 48.4599 11.0742C48.057 11.0742 47.7037 10.9859 47.3997 10.8092C47.1029 10.6325 46.8767 10.3816 46.7212 10.0565V10.6289C46.7212 10.7562 46.6824 10.8586 46.6046 10.9364C46.5339 11.0141 46.4315 11.053 46.2972 11.053C46.1629 11.053 46.0569 11.0141 45.9791 10.9364C45.9014 10.8586 45.8625 10.7562 45.8625 10.6289V3.88629C45.8625 3.76614 45.9014 3.66719 45.9791 3.58944C46.0569 3.5117 46.1629 3.47283 46.2972 3.47283C46.4315 3.47283 46.5339 3.5117 46.6046 3.58944C46.6824 3.66012 46.7212 3.75907 46.7212 3.88629V6.72753C46.8767 6.40242 47.1029 6.15151 47.3997 5.97482C47.7037 5.79812 48.057 5.70977 48.4599 5.70977ZM48.2903 10.3639C48.7921 10.3639 49.1808 10.1907 49.4565 9.84442C49.7321 9.49103 49.8699 8.99982 49.8699 8.37079C49.8699 7.75589 49.7321 7.27882 49.4565 6.93957C49.1808 6.60031 48.7921 6.43069 48.2903 6.43069C47.7885 6.43069 47.3997 6.60031 47.1241 6.93957C46.8555 7.27882 46.7212 7.76296 46.7212 8.39199C46.7212 9.02102 46.8555 9.5087 47.1241 9.85502C47.3997 10.1943 47.7885 10.3639 48.2903 10.3639ZM55.6921 5.99602C55.7698 5.82639 55.8935 5.74158 56.0631 5.74158C56.1691 5.74158 56.2646 5.77692 56.3494 5.8476C56.4342 5.91827 56.4766 6.00662 56.4766 6.11264C56.4766 6.17625 56.4624 6.23279 56.4342 6.28226L53.4551 12.7069C53.4198 12.7846 53.3668 12.8447 53.2961 12.8871C53.2325 12.9295 53.1653 12.9507 53.0947 12.9507C52.9886 12.9507 52.8932 12.9154 52.8084 12.8447C52.7307 12.7811 52.6918 12.6963 52.6918 12.5902C52.6918 12.5337 52.7059 12.4772 52.7342 12.4206L53.4763 10.8198L51.3772 6.28226C51.3489 6.23279 51.3348 6.17978 51.3348 6.12324C51.3348 6.01722 51.3807 5.92534 51.4726 5.8476C51.5716 5.76985 51.6776 5.73098 51.7907 5.73098C51.8613 5.73098 51.9285 5.75218 51.9921 5.79459C52.0628 5.83699 52.1158 5.89707 52.1511 5.97482L53.9216 9.95044L55.6921 5.99602Z" fill="white"/>
</svg>
